STARTFONT 2.1
FONT -Monotype-Century Schoolbook-Regular-I-Normal--14-140-75-75-P-75-iso8859-2
SIZE 14 75 75
FONTBOUNDINGBOX 18 19 -2 -4

STARTPROPERTIES 22
FOUNDRY "Monotype"
FAMILY_NAME "Century Schoolbook"
WEIGHT_NAME "Regular"
SLANT "I"
SETWIDTH_NAME "Normal"
ADD_STYLE_NAME ""
PIXEL_SIZE 14
POINT_SIZE 140
RESOLUTION_X 75
RESOLUTION_Y 75
SPACING "P"
AVERAGE_WIDTH 75
CHARSET_REGISTRY "iso8859"
CHARSET_ENCODING "2"
COPYRIGHT "Copyright (c) 1996 Monotype Typography Ltd."
CAP_HEIGHT 13
X_HEIGHT 8
WEIGHT 10
QUAD_WIDTH 8
DEFAULT_CHAR 160
FONT_DESCENT 4
FONT_ASCENT 15
ENDPROPERTIES

CHARS 191

STARTCHAR space
ENCODING 32
SWIDTH 278 0
DWIDTH 4 0
BBX 0 0 0 0
BITMAP
ENDCHAR

STARTCHAR exclam
ENCODING 33
SWIDTH 333 0
DWIDTH 5 0
BBX 4 11 1 0
BITMAP
10
10
10
20
20
20
40
40
00
80
80
ENDCHAR

STARTCHAR quotedbl
ENCODING 34
SWIDTH 400 0
DWIDTH 6 0
BBX 4 4 2 7
BITMAP
90
90
90
90
ENDCHAR

STARTCHAR numbersign
ENCODING 35
SWIDTH 606 0
DWIDTH 9 0
BBX 8 11 1 0
BITMAP
12
12
12
7F
24
24
24
FE
48
48
48
ENDCHAR

STARTCHAR dollar
ENCODING 36
SWIDTH 556 0
DWIDTH 8 0
BBX 6 14 2 -2
BITMAP
08
18
24
44
40
20
10
08
08
88
88
70
40
40
ENDCHAR

STARTCHAR percent
ENCODING 37
SWIDTH 833 0
DWIDTH 12 0
BBX 10 11 2 0
BITMAP
3080
5080
9100
9200
A200
C4C0
0940
0A40
1240
2280
2300
ENDCHAR

STARTCHAR ampersand
ENCODING 38
SWIDTH 852 0
DWIDTH 13 0
BBX 11 11 2 0
BITMAP
0E00
1100
1100
1200
1C00
38E0
4840
8480
8500
8640
7B80
ENDCHAR

STARTCHAR quoteright
ENCODING 39
SWIDTH 204 0
DWIDTH 3 0
BBX 3 4 1 7
BITMAP
60
20
40
80
ENDCHAR

STARTCHAR parenleft
ENCODING 40
SWIDTH 333 0
DWIDTH 5 0
BBX 5 14 1 -3
BITMAP
08
10
20
40
40
80
80
80
80
80
80
40
40
20
ENDCHAR

STARTCHAR parenright
ENCODING 41
SWIDTH 333 0
DWIDTH 5 0
BBX 5 14 0 -3
BITMAP
20
10
10
08
08
08
08
08
08
10
10
20
40
80
ENDCHAR

STARTCHAR asterisk
ENCODING 42
SWIDTH 500 0
DWIDTH 8 0
BBX 7 6 2 5
BITMAP
10
10
FE
28
6C
44
ENDCHAR

STARTCHAR plus
ENCODING 43
SWIDTH 606 0
DWIDTH 9 0
BBX 9 9 1 1
BITMAP
0800
0800
0800
0800
FF80
0800
0800
0800
0800
ENDCHAR

STARTCHAR comma
ENCODING 44
SWIDTH 278 0
DWIDTH 4 0
BBX 3 4 0 -2
BITMAP
60
20
40
80
ENDCHAR

STARTCHAR minus
ENCODING 45
SWIDTH 606 0
DWIDTH 9 0
BBX 8 1 1 5
BITMAP
FF
ENDCHAR

STARTCHAR period
ENCODING 46
SWIDTH 278 0
DWIDTH 4 0
BBX 1 2 2 0
BITMAP
80
80
ENDCHAR

STARTCHAR slash
ENCODING 47
SWIDTH 606 0
DWIDTH 9 0
BBX 6 11 3 0
BITMAP
04
08
08
10
10
20
20
40
40
80
80
ENDCHAR

STARTCHAR zero
ENCODING 48
SWIDTH 556 0
DWIDTH 8 0
BBX 7 11 1 0
BITMAP
1C
22
42
42
82
82
82
84
84
C8
70
ENDCHAR

STARTCHAR one
ENCODING 49
SWIDTH 556 0
DWIDTH 8 0
BBX 5 11 2 0
BITMAP
08
38
08
08
10
10
10
20
20
20
F8
ENDCHAR

STARTCHAR two
ENCODING 50
SWIDTH 556 0
DWIDTH 8 0
BBX 7 11 1 0
BITMAP
1C
22
42
42
02
04
08
10
24
44
F8
ENDCHAR

STARTCHAR three
ENCODING 51
SWIDTH 556 0
DWIDTH 8 0
BBX 7 11 1 0
BITMAP
1C
22
22
12
04
18
04
44
84
88
70
ENDCHAR

STARTCHAR four
ENCODING 52
SWIDTH 556 0
DWIDTH 8 0
BBX 8 11 0 0
BITMAP
01
03
05
09
12
22
42
FF
04
04
1F
ENDCHAR

STARTCHAR five
ENCODING 53
SWIDTH 556 0
DWIDTH 8 0
BBX 8 11 0 0
BITMAP
0F
10
10
10
3C
22
02
42
82
84
78
ENDCHAR

STARTCHAR six
ENCODING 54
SWIDTH 556 0
DWIDTH 8 0
BBX 7 11 1 0
BITMAP
1C
22
44
40
B8
C4
84
84
84
88
70
ENDCHAR

STARTCHAR seven
ENCODING 55
SWIDTH 556 0
DWIDTH 8 0
BBX 7 11 2 0
BITMAP
7E
82
84
08
10
10
20
20
40
40
40
ENDCHAR

STARTCHAR eight
ENCODING 56
SWIDTH 556 0
DWIDTH 8 0
BBX 7 11 0 0
BITMAP
1C
22
42
42
24
3C
42
82
82
84
78
ENDCHAR

STARTCHAR nine
ENCODING 57
SWIDTH 556 0
DWIDTH 8 0
BBX 7 11 1 0
BITMAP
1C
22
42
42
42
46
3A
04
44
88
70
ENDCHAR

STARTCHAR colon
ENCODING 58
SWIDTH 278 0
DWIDTH 4 0
BBX 2 7 1 0
BITMAP
40
40
00
00
00
80
80
ENDCHAR

STARTCHAR semicolon
ENCODING 59
SWIDTH 278 0
DWIDTH 4 0
BBX 3 9 0 -2
BITMAP
20
20
00
00
00
60
20
40
80
ENDCHAR

STARTCHAR less
ENCODING 60
SWIDTH 606 0
DWIDTH 9 0
BBX 8 8 1 1
BITMAP
03
0C
30
C0
C0
30
0C
03
ENDCHAR

STARTCHAR equal
ENCODING 61
SWIDTH 606 0
DWIDTH 9 0
BBX 8 4 1 3
BITMAP
FF
00
00
FF
ENDCHAR

STARTCHAR greater
ENCODING 62
SWIDTH 606 0
DWIDTH 9 0
BBX 8 8 1 1
BITMAP
C0
30
0C
03
03
0C
30
C0
ENDCHAR

STARTCHAR question
ENCODING 63
SWIDTH 444 0
DWIDTH 7 0
BBX 5 11 2 0
BITMAP
30
48
90
20
40
80
90
60
00
80
80
ENDCHAR

STARTCHAR at
ENCODING 64
SWIDTH 747 0
DWIDTH 11 0
BBX 11 12 0 -1
BITMAP
0E00
3180
4040
4540
8B20
8920
9220
9EC0
5B20
4040
30C0
0F00
ENDCHAR

STARTCHAR A
ENCODING 65
SWIDTH 704 0
DWIDTH 11 0
BBX 10 11 0 0
BITMAP
0180
0180
0280
0480
0480
0880
1080
1F80
2080
4080
E1C0
ENDCHAR

STARTCHAR B
ENCODING 66
SWIDTH 722 0
DWIDTH 11 0
BBX 10 11 1 0
BITMAP
3F80
1040
1040
1040
2080
3F00
2080
4080
4080
4100
FE00
ENDCHAR

STARTCHAR C
ENCODING 67
SWIDTH 722 0
DWIDTH 11 0
BBX 10 11 2 0
BITMAP
0740
18C0
2080
4080
4000
8000
8000
8000
8080
4100
3E00
ENDCHAR

STARTCHAR D
ENCODING 68
SWIDTH 778 0
DWIDTH 12 0
BBX 11 11 1 0
BITMAP
3F80
1040
1020
1020
2020
2020
2020
4040
4040
4180
FE00
ENDCHAR

STARTCHAR E
ENCODING 69
SWIDTH 722 0
DWIDTH 11 0
BBX 11 11 1 0
BITMAP
3FE0
1020
1040
1240
2200
3E00
2400
4480
4080
4100
FF00
ENDCHAR

STARTCHAR F
ENCODING 70
SWIDTH 667 0
DWIDTH 10 0
BBX 11 11 1 0
BITMAP
3FE0
1020
1040
1240
2200
3E00
2400
4400
4000
4000
F000
ENDCHAR

STARTCHAR G
ENCODING 71
SWIDTH 778 0
DWIDTH 12 0
BBX 10 11 2 0
BITMAP
0740
18C0
2040
4040
4000
8000
83C0
8080
8080
4300
3D00
ENDCHAR

STARTCHAR H
ENCODING 72
SWIDTH 833 0
DWIDTH 12 0
BBX 12 11 1 0
BITMAP
3870
1020
1020
1020
2040
3FC0
2040
4080
4080
4080
E1C0
ENDCHAR

STARTCHAR I
ENCODING 73
SWIDTH 407 0
DWIDTH 5 0
BBX 5 11 1 0
BITMAP
38
10
10
10
20
20
20
40
40
40
E0
ENDCHAR

STARTCHAR J
ENCODING 74
SWIDTH 611 0
DWIDTH 9 0
BBX 8 11 2 0
BITMAP
07
02
02
02
04
04
04
08
88
88
70
ENDCHAR

STARTCHAR K
ENCODING 75
SWIDTH 741 0
DWIDTH 11 0
BBX 10 11 1 0
BITMAP
39C0
1080
1100
1200
2400
3800
2400
4200
4200
4100
E780
ENDCHAR

STARTCHAR L
ENCODING 76
SWIDTH 667 0
DWIDTH 10 0
BBX 9 11 1 0
BITMAP
3800
1000
1000
1000
2000
2000
2000
4080
4080
4100
FF00
ENDCHAR

STARTCHAR M
ENCODING 77
SWIDTH 944 0
DWIDTH 14 0
BBX 14 11 1 0
BITMAP
3C3C
1428
1448
2448
2490
2490
2510
4520
4620
4420
E470
ENDCHAR

STARTCHAR N
ENCODING 78
SWIDTH 815 0
DWIDTH 12 0
BBX 12 11 1 0
BITMAP
3870
1820
1420
2420
2440
2240
2240
4280
4180
4180
E180
ENDCHAR

STARTCHAR O
ENCODING 79
SWIDTH 778 0
DWIDTH 12 0
BBX 10 11 2 0
BITMAP
0F00
3080
4040
4040
8040
8040
8040
8080
8080
4300
3C00
ENDCHAR

STARTCHAR P
ENCODING 80
SWIDTH 667 0
DWIDTH 10 0
BBX 10 11 1 0
BITMAP
3F80
1040
1040
1040
2080
3F00
2000
4000
4000
4000
F000
ENDCHAR

STARTCHAR Q
ENCODING 81
SWIDTH 778 0
DWIDTH 12 0
BBX 10 13 2 -2
BITMAP
0F00
3080
4040
4040
8040
8040
8040
9C80
E280
4300
3E00
0280
0300
ENDCHAR

STARTCHAR R
ENCODING 82
SWIDTH 741 0
DWIDTH 11 0
BBX 10 11 1 0
BITMAP
3F80
1040
1040
1040
2180
3E00
2400
4200
4200
4240
E180
ENDCHAR

STARTCHAR S
ENCODING 83
SWIDTH 667 0
DWIDTH 10 0
BBX 10 11 1 0
BITMAP
0E40
11C0
2080
2080
1800
0600
0100
4100
4100
E200
BC00
ENDCHAR

STARTCHAR T
ENCODING 84
SWIDTH 685 0
DWIDTH 10 0
BBX 10 11 1 0
BITMAP
3FC0
6440
4480
8480
0800
0800
0800
1000
1000
1000
7C00
ENDCHAR

STARTCHAR U
ENCODING 85
SWIDTH 815 0
DWIDTH 12 0
BBX 11 11 2 0
BITMAP
78E0
2040
2040
2040
4080
4080
4080
8100
8100
8200
7C00
ENDCHAR

STARTCHAR V
ENCODING 86
SWIDTH 704 0
DWIDTH 11 0
BBX 9 11 3 0
BITMAP
E380
4100
4200
4200
4400
4800
4800
5000
6000
6000
4000
ENDCHAR

STARTCHAR W
ENCODING 87
SWIDTH 926 0
DWIDTH 14 0
BBX 14 11 2 0
BITMAP
E71C
4208
4210
4610
4620
4A40
5240
5280
6300
6300
4200
ENDCHAR

STARTCHAR X
ENCODING 88
SWIDTH 704 0
DWIDTH 11 0
BBX 11 11 1 0
BITMAP
38E0
1040
1080
0900
0A00
0400
0C00
1200
2200
4100
E380
ENDCHAR

STARTCHAR Y
ENCODING 89
SWIDTH 685 0
DWIDTH 10 0
BBX 10 11 2 0
BITMAP
F1C0
4080
4100
2200
2400
1800
1000
1000
2000
2000
F800
ENDCHAR

STARTCHAR Z
ENCODING 90
SWIDTH 667 0
DWIDTH 10 0
BBX 9 11 1 0
BITMAP
3F80
2080
4100
4200
0400
0800
0800
1080
2080
4100
FF00
ENDCHAR

STARTCHAR bracketleft
ENCODING 91
SWIDTH 333 0
DWIDTH 5 0
BBX 6 14 0 -3
BITMAP
1C
10
10
20
20
20
20
40
40
40
40
80
80
E0
ENDCHAR

STARTCHAR backslash
ENCODING 92
SWIDTH 606 0
DWIDTH 9 0
BBX 3 11 3 0
BITMAP
80
80
80
40
40
40
40
20
20
20
20
ENDCHAR

STARTCHAR bracketright
ENCODING 93
SWIDTH 333 0
DWIDTH 5 0
BBX 6 14 -1 -3
BITMAP
1C
04
04
08
08
08
08
10
10
10
10
20
20
E0
ENDCHAR

STARTCHAR asciicircum
ENCODING 94
SWIDTH 606 0
DWIDTH 9 0
BBX 7 5 2 6
BITMAP
10
38
28
44
C6
ENDCHAR

STARTCHAR underscore
ENCODING 95
SWIDTH 500 0
DWIDTH 8 0
BBX 8 1 0 -2
BITMAP
FF
ENDCHAR

STARTCHAR quoteleft
ENCODING 96
SWIDTH 204 0
DWIDTH 3 0
BBX 3 4 1 7
BITMAP
20
40
80
C0
ENDCHAR

STARTCHAR a
ENCODING 97
SWIDTH 574 0
DWIDTH 9 0
BBX 8 7 1 0
BITMAP
3A
46
82
84
84
8D
72
ENDCHAR

STARTCHAR b
ENCODING 98
SWIDTH 556 0
DWIDTH 8 0
BBX 6 11 1 0
BITMAP
60
20
20
20
58
64
44
84
84
88
70
ENDCHAR

STARTCHAR c
ENCODING 99
SWIDTH 444 0
DWIDTH 7 0
BBX 6 7 1 0
BITMAP
38
44
84
80
80
88
70
ENDCHAR

STARTCHAR d
ENCODING 100
SWIDTH 611 0
DWIDTH 9 0
BBX 8 11 1 0
BITMAP
03
01
01
02
3A
46
82
84
84
8D
76
ENDCHAR

STARTCHAR e
ENCODING 101
SWIDTH 444 0
DWIDTH 7 0
BBX 6 7 1 0
BITMAP
38
44
84
F8
80
88
70
ENDCHAR

STARTCHAR f
ENCODING 102
SWIDTH 333 0
DWIDTH 5 0
BBX 7 14 0 -3
BITMAP
06
0A
10
10
7C
20
20
20
40
40
40
40
80
80
ENDCHAR

STARTCHAR g
ENCODING 103
SWIDTH 537 0
DWIDTH 8 0
BBX 9 10 -1 -3
BITMAP
0D80
1300
2100
2200
1C00
2000
5C00
8200
8400
7800
ENDCHAR

STARTCHAR h
ENCODING 104
SWIDTH 611 0
DWIDTH 9 0
BBX 8 11 1 0
BITMAP
60
20
20
20
5C
62
42
42
84
85
82
ENDCHAR

STARTCHAR i
ENCODING 105
SWIDTH 333 0
DWIDTH 5 0
BBX 3 11 1 0
BITMAP
20
20
00
00
C0
40
40
80
80
A0
40
ENDCHAR

STARTCHAR j
ENCODING 106
SWIDTH 315 0
DWIDTH 5 0
BBX 6 14 -1 -3
BITMAP
04
04
00
00
18
08
08
08
10
10
10
20
A0
C0
ENDCHAR

STARTCHAR k
ENCODING 107
SWIDTH 556 0
DWIDTH 8 0
BBX 7 11 1 0
BITMAP
60
20
20
40
5C
62
42
5C
88
8A
84
ENDCHAR

STARTCHAR l
ENCODING 108
SWIDTH 333 0
DWIDTH 5 0
BBX 3 11 1 0
BITMAP
60
20
20
40
40
40
40
80
80
A0
40
ENDCHAR

STARTCHAR m
ENCODING 109
SWIDTH 889 0
DWIDTH 12 0
BBX 11 7 1 0
BITMAP
DD80
6640
4440
4440
8880
88A0
8840
ENDCHAR

STARTCHAR n
ENCODING 110
SWIDTH 611 0
DWIDTH 9 0
BBX 8 7 1 0
BITMAP
DC
62
42
42
84
85
82
ENDCHAR

STARTCHAR o
ENCODING 111
SWIDTH 500 0
DWIDTH 8 0
BBX 6 7 1 0
BITMAP
38
44
84
84
84
88
70
ENDCHAR

STARTCHAR p
ENCODING 112
SWIDTH 574 0
DWIDTH 9 0
BBX 9 10 -1 -3
BITMAP
3700
1880
1080
1080
2080
3100
2E00
4000
4000
E000
ENDCHAR

STARTCHAR q
ENCODING 113
SWIDTH 556 0
DWIDTH 8 0
BBX 7 10 1 -3
BITMAP
3A
46
82
82
84
8C
74
08
08
1C
ENDCHAR

STARTCHAR r
ENCODING 114
SWIDTH 444 0
DWIDTH 7 0
BBX 6 7 1 0
BITMAP
D8
6C
40
40
80
80
80
ENDCHAR

STARTCHAR s
ENCODING 115
SWIDTH 444 0
DWIDTH 7 0
BBX 6 7 1 0
BITMAP
38
44
40
30
08
88
70
ENDCHAR

STARTCHAR t
ENCODING 116
SWIDTH 352 0
DWIDTH 5 0
BBX 5 10 1 0
BITMAP
20
20
20
F8
40
40
80
80
90
60
ENDCHAR

STARTCHAR u
ENCODING 117
SWIDTH 611 0
DWIDTH 9 0
BBX 7 7 1 0
BITMAP
C2
42
42
84
84
8C
76
ENDCHAR

STARTCHAR v
ENCODING 118
SWIDTH 519 0
DWIDTH 8 0
BBX 6 7 1 0
BITMAP
C8
44
44
84
84
88
70
ENDCHAR

STARTCHAR w
ENCODING 119
SWIDTH 778 0
DWIDTH 12 0
BBX 11 7 1 0
BITMAP
C240
4220
4420
8420
8C40
9480
6300
ENDCHAR

STARTCHAR x
ENCODING 120
SWIDTH 500 0
DWIDTH 8 0
BBX 8 7 0 0
BITMAP
33
55
18
10
10
AA
CC
ENDCHAR

STARTCHAR y
ENCODING 121
SWIDTH 500 0
DWIDTH 8 0
BBX 7 10 0 -3
BITMAP
44
A2
22
22
14
14
18
10
A0
C0
ENDCHAR

STARTCHAR z
ENCODING 122
SWIDTH 463 0
DWIDTH 7 0
BBX 7 7 0 0
BITMAP
3A
46
04
08
10
64
B8
ENDCHAR

STARTCHAR braceleft
ENCODING 123
SWIDTH 333 0
DWIDTH 5 0
BBX 6 14 1 -3
BITMAP
0C
10
20
20
20
20
C0
40
40
40
80
80
80
60
ENDCHAR

STARTCHAR bar
ENCODING 124
SWIDTH 606 0
DWIDTH 9 0
BBX 1 14 4 -3
BITMAP
80
80
80
80
80
80
80
80
80
80
80
80
80
80
ENDCHAR

STARTCHAR braceright
ENCODING 125
SWIDTH 333 0
DWIDTH 5 0
BBX 6 14 -1 -3
BITMAP
18
04
04
04
08
08
08
0C
10
10
10
10
20
C0
ENDCHAR

STARTCHAR asciitilde
ENCODING 126
SWIDTH 606 0
DWIDTH 9 0
BBX 7 3 1 3
BITMAP
62
92
8C
ENDCHAR

STARTCHAR space
ENCODING 160
SWIDTH 278 0
DWIDTH 5 0
BBX 0 0 0 0
BITMAP
ENDCHAR

STARTCHAR Aogonek
ENCODING 161
SWIDTH 704 0
DWIDTH 11 0
BBX 10 13 0 -2
BITMAP
0180
0180
0280
0480
0480
0880
1080
1F80
2080
4080
E1C0
0100
00C0
ENDCHAR

STARTCHAR breve
ENCODING 162
SWIDTH 333 0
DWIDTH 5 0
BBX 5 2 1 8
BITMAP
88
70
ENDCHAR

STARTCHAR Lslash
ENCODING 163
SWIDTH 667 0
DWIDTH 10 0
BBX 9 11 1 0
BITMAP
3800
1000
1000
1400
2800
3000
2000
C080
4080
4100
FF00
ENDCHAR

STARTCHAR currency
ENCODING 164
SWIDTH 606 0
DWIDTH 9 0
BBX 7 7 1 1
BITMAP
BA
44
82
82
82
44
BA
ENDCHAR

STARTCHAR Lcaron
ENCODING 165
SWIDTH 667 0
DWIDTH 10 0
BBX 9 11 1 0
BITMAP
3B00
1100
1100
1200
2000
2000
2000
4080
4080
4100
FF00
ENDCHAR

STARTCHAR Sacute
ENCODING 166
SWIDTH 667 0
DWIDTH 10 0
BBX 10 14 1 0
BITMAP
0300
0400
0000
0E40
11C0
2080
2080
1800
0600
0100
4100
4100
E200
BC00
ENDCHAR

STARTCHAR section
ENCODING 167
SWIDTH 500 0
DWIDTH 8 0
BBX 6 14 1 -3
BITMAP
1C
24
24
10
30
58
48
48
48
30
30
90
90
E0
ENDCHAR

STARTCHAR dieresis
ENCODING 168
SWIDTH 333 0
DWIDTH 5 0
BBX 5 1 1 8
BITMAP
D8
ENDCHAR

STARTCHAR Scaron
ENCODING 169
SWIDTH 667 0
DWIDTH 10 0
BBX 10 14 1 0
BITMAP
0900
0600
0000
0E40
11C0
2080
2080
1800
0600
0100
4100
4100
E200
BC00
ENDCHAR

STARTCHAR Scommaaccent
ENCODING 170
SWIDTH 667 0
DWIDTH 10 0
BBX 10 15 1 -4
BITMAP
0E40
11C0
2080
2080
1800
0600
0100
4100
4100
E200
BC00
0000
1800
0800
1000
ENDCHAR

STARTCHAR Tcaron
ENCODING 171
SWIDTH 685 0
DWIDTH 10 0
BBX 10 14 1 0
BITMAP
0900
0600
0000
3FC0
6440
4480
8480
0800
0800
0800
1000
1000
1000
7C00
ENDCHAR

STARTCHAR Zacute
ENCODING 172
SWIDTH 667 0
DWIDTH 10 0
BBX 9 14 1 0
BITMAP
0600
0800
0000
3F80
2080
4100
4200
0400
0800
0800
1080
2080
4100
FF00
ENDCHAR

STARTCHAR hyphen
ENCODING 173
SWIDTH 333 0
DWIDTH 5 0
BBX 3 1 1 3
BITMAP
E0
ENDCHAR

STARTCHAR Zcaron
ENCODING 174
SWIDTH 667 0
DWIDTH 10 0
BBX 9 14 1 0
BITMAP
0900
0600
0000
3F80
2080
4100
4200
0400
0800
0800
1080
2080
4100
FF00
ENDCHAR

STARTCHAR Zdotaccent
ENCODING 175
SWIDTH 667 0
DWIDTH 10 0
BBX 9 13 1 0
BITMAP
0600
0000
3F80
2080
4100
4200
0400
0800
0800
1080
2080
4100
FF00
ENDCHAR

STARTCHAR degree
ENCODING 176
SWIDTH 400 0
DWIDTH 6 0
BBX 5 5 1 6
BITMAP
70
88
88
88
70
ENDCHAR

STARTCHAR aogonek
ENCODING 177
SWIDTH 574 0
DWIDTH 9 0
BBX 10 9 1 -2
BITMAP
3A00
4600
8200
8400
8400
8D00
7200
0200
01C0
ENDCHAR

STARTCHAR ogonek
ENCODING 178
SWIDTH 333 0
DWIDTH 5 0
BBX 3 2 1 -2
BITMAP
80
60
ENDCHAR

STARTCHAR lslash
ENCODING 179
SWIDTH 333 0
DWIDTH 5 0
BBX 5 11 0 0
BITMAP
30
10
10
20
28
30
20
C0
40
50
20
ENDCHAR

STARTCHAR acute
ENCODING 180
SWIDTH 333 0
DWIDTH 5 0
BBX 3 2 2 8
BITMAP
60
80
ENDCHAR

STARTCHAR lcaron
ENCODING 181
SWIDTH 380 0
DWIDTH 5 0
BBX 6 11 1 0
BITMAP
6C
24
24
48
40
40
40
80
80
A0
40
ENDCHAR

STARTCHAR sacute
ENCODING 182
SWIDTH 444 0
DWIDTH 7 0
BBX 6 10 1 0
BITMAP
0C
10
00
38
44
40
30
08
88
70
ENDCHAR

STARTCHAR caron
ENCODING 183
SWIDTH 333 0
DWIDTH 5 0
BBX 4 2 1 8
BITMAP
90
60
ENDCHAR

STARTCHAR commaaccent
ENCODING 184
SWIDTH 333 0
DWIDTH 5 0
BBX 2 3 2 -4
BITMAP
C0
40
80
ENDCHAR

STARTCHAR scaron
ENCODING 185
SWIDTH 444 0
DWIDTH 7 0
BBX 6 10 1 0
BITMAP
24
18
00
38
44
40
30
08
88
70
ENDCHAR

STARTCHAR scommaaccent
ENCODING 186
SWIDTH 444 0
DWIDTH 7 0
BBX 6 11 1 -4
BITMAP
38
44
40
30
08
88
70
00
60
20
40
ENDCHAR

STARTCHAR tcaron
ENCODING 187
SWIDTH 427 0
DWIDTH 5 0
BBX 6 11 1 0
BITMAP
0C
24
24
28
F8
40
40
80
80
90
60
ENDCHAR

STARTCHAR zacute
ENCODING 188
SWIDTH 463 0
DWIDTH 7 0
BBX 7 10 0 0
BITMAP
0C
10
00
3A
46
04
08
10
64
B8
ENDCHAR

STARTCHAR hungarumlaut
ENCODING 189
SWIDTH 333 0
DWIDTH 5 0
BBX 7 2 0 8
BITMAP
66
88
ENDCHAR

STARTCHAR zcaron
ENCODING 190
SWIDTH 463 0
DWIDTH 7 0
BBX 7 10 0 0
BITMAP
24
18
00
3A
46
04
08
10
64
B8
ENDCHAR

STARTCHAR zdotaccent
ENCODING 191
SWIDTH 463 0
DWIDTH 7 0
BBX 7 9 0 0
BITMAP
18
00
3A
46
04
08
10
64
B8
ENDCHAR

STARTCHAR Racute
ENCODING 192
SWIDTH 741 0
DWIDTH 11 0
BBX 10 14 1 0
BITMAP
0300
0400
0000
3F80
1040
1040
1040
2180
3E00
2400
4200
4200
4240
E180
ENDCHAR

STARTCHAR Aacute
ENCODING 193
SWIDTH 704 0
DWIDTH 11 0
BBX 10 14 0 0
BITMAP
00C0
0100
0000
0180
0180
0280
0480
0480
0880
1080
1F80
2080
4080
E1C0
ENDCHAR

STARTCHAR Acircumflex
ENCODING 194
SWIDTH 704 0
DWIDTH 11 0
BBX 11 14 0 0
BITMAP
00C0
0120
0000
0180
0180
0280
0480
0480
0880
1080
1F80
2080
4080
E1C0
ENDCHAR

STARTCHAR Abreve
ENCODING 195
SWIDTH 704 0
DWIDTH 11 0
BBX 11 14 0 0
BITMAP
0220
01C0
0000
0180
0180
0280
0480
0480
0880
1080
1F80
2080
4080
E1C0
ENDCHAR

STARTCHAR Adieresis
ENCODING 196
SWIDTH 704 0
DWIDTH 11 0
BBX 11 13 0 0
BITMAP
0360
0000
0180
0180
0280
0480
0480
0880
1080
1F80
2080
4080
E1C0
ENDCHAR

STARTCHAR Lacute
ENCODING 197
SWIDTH 667 0
DWIDTH 10 0
BBX 9 14 1 0
BITMAP
0600
0800
0000
3800
1000
1000
1000
2000
2000
2000
4080
4080
4100
FF00
ENDCHAR

STARTCHAR Cacute
ENCODING 198
SWIDTH 722 0
DWIDTH 11 0
BBX 10 14 2 0
BITMAP
0180
0200
0000
0740
18C0
2080
4080
4000
8000
8000
8000
8080
4100
3E00
ENDCHAR

STARTCHAR Ccedilla
ENCODING 199
SWIDTH 722 0
DWIDTH 11 0
BBX 10 14 2 -3
BITMAP
0740
18C0
2080
4080
4000
8000
8000
8000
8080
4100
3E00
0800
0400
1800
ENDCHAR

STARTCHAR Ccaron
ENCODING 200
SWIDTH 722 0
DWIDTH 11 0
BBX 10 14 2 0
BITMAP
0900
0600
0000
0740
18C0
2080
4080
4000
8000
8000
8000
8080
4100
3E00
ENDCHAR

STARTCHAR Eacute
ENCODING 201
SWIDTH 722 0
DWIDTH 11 0
BBX 11 14 1 0
BITMAP
0300
0400
0000
3FE0
1020
1040
1240
2200
3E00
2400
4480
4080
4100
FF00
ENDCHAR

STARTCHAR Eogonek
ENCODING 202
SWIDTH 722 0
DWIDTH 11 0
BBX 11 13 1 -2
BITMAP
3FE0
1020
1040
1240
2200
3E00
2400
4480
4080
4100
FF00
0400
0300
ENDCHAR

STARTCHAR Edieresis
ENCODING 203
SWIDTH 722 0
DWIDTH 11 0
BBX 11 13 1 0
BITMAP
0D80
0000
3FE0
1020
1040
1240
2200
3E00
2400
4480
4080
4100
FF00
ENDCHAR

STARTCHAR Ecaron
ENCODING 204
SWIDTH 722 0
DWIDTH 11 0
BBX 11 14 1 0
BITMAP
0480
0300
0000
3FE0
1020
1040
1240
2200
3E00
2400
4480
4080
4100
FF00
ENDCHAR

STARTCHAR Iacute
ENCODING 205
SWIDTH 407 0
DWIDTH 5 0
BBX 6 14 1 0
BITMAP
0C
10
00
38
10
10
10
20
20
20
40
40
40
E0
ENDCHAR

STARTCHAR Icircumflex
ENCODING 206
SWIDTH 407 0
DWIDTH 5 0
BBX 6 14 1 0
BITMAP
18
24
00
38
10
10
10
20
20
20
40
40
40
E0
ENDCHAR

STARTCHAR Dcaron
ENCODING 207
SWIDTH 778 0
DWIDTH 12 0
BBX 11 14 1 0
BITMAP
0480
0300
0000
3F80
1040
1020
1020
2020
2020
2020
4040
4040
4180
FE00
ENDCHAR

STARTCHAR Dcroat
ENCODING 208
SWIDTH 778 0
DWIDTH 12 0
BBX 11 11 1 0
BITMAP
3F80
1040
1020
1020
2020
7C20
2020
4040
4040
4180
FE00
ENDCHAR

STARTCHAR Nacute
ENCODING 209
SWIDTH 815 0
DWIDTH 12 0
BBX 12 14 1 0
BITMAP
00C0
0100
0000
3870
1820
1420
2420
2440
2240
2240
4280
4180
4180
E180
ENDCHAR

STARTCHAR Ncaron
ENCODING 210
SWIDTH 815 0
DWIDTH 12 0
BBX 12 14 1 0
BITMAP
0480
0300
0000
3870
1820
1420
2420
2440
2240
2240
4280
4180
4180
E180
ENDCHAR

STARTCHAR Oacute
ENCODING 211
SWIDTH 778 0
DWIDTH 12 0
BBX 10 14 2 0
BITMAP
0300
0400
0000
0F00
3080
4040
4040
8040
8040
8040
8080
8080
4300
3C00
ENDCHAR

STARTCHAR Ocircumflex
ENCODING 212
SWIDTH 778 0
DWIDTH 12 0
BBX 10 14 2 0
BITMAP
0600
0900
0000
0F00
3080
4040
4040
8040
8040
8040
8080
8080
4300
3C00
ENDCHAR

STARTCHAR Ohungarumlaut
ENCODING 213
SWIDTH 778 0
DWIDTH 12 0
BBX 10 14 2 0
BITMAP
0CC0
1100
0000
0F00
3080
4040
4040
8040
8040
8040
8080
8080
4300
3C00
ENDCHAR

STARTCHAR Odieresis
ENCODING 214
SWIDTH 778 0
DWIDTH 12 0
BBX 10 13 2 0
BITMAP
0D80
0000
0F00
3080
4040
4040
8040
8040
8040
8080
8080
4300
3C00
ENDCHAR

STARTCHAR multiply
ENCODING 215
SWIDTH 606 0
DWIDTH 9 0
BBX 7 8 1 1
BITMAP
82
44
28
38
38
28
44
82
ENDCHAR

STARTCHAR Rcaron
ENCODING 216
SWIDTH 741 0
DWIDTH 11 0
BBX 10 14 1 0
BITMAP
0900
0600
0000
3F80
1040
1040
1040
2180
3E00
2400
4200
4200
4240
E180
ENDCHAR

STARTCHAR Uring
ENCODING 217
SWIDTH 815 0
DWIDTH 12 0
BBX 11 15 2 0
BITMAP
0300
0480
0300
0000
78E0
2040
2040
2040
4080
4080
4080
8100
8100
8200
7C00
ENDCHAR

STARTCHAR Uacute
ENCODING 218
SWIDTH 815 0
DWIDTH 12 0
BBX 11 14 2 0
BITMAP
0300
0400
0000
78E0
2040
2040
2040
4080
4080
4080
8100
8100
8200
7C00
ENDCHAR

STARTCHAR Uhungarumlaut
ENCODING 219
SWIDTH 815 0
DWIDTH 12 0
BBX 11 14 2 0
BITMAP
0CC0
1100
0000
78E0
2040
2040
2040
4080
4080
4080
8100
8100
8200
7C00
ENDCHAR

STARTCHAR Udieresis
ENCODING 220
SWIDTH 815 0
DWIDTH 12 0
BBX 11 13 2 0
BITMAP
0D80
0000
78E0
2040
2040
2040
4080
4080
4080
8100
8100
8200
7C00
ENDCHAR

STARTCHAR Yacute
ENCODING 221
SWIDTH 685 0
DWIDTH 10 0
BBX 10 14 2 0
BITMAP
0600
0800
0000
F1C0
4080
4100
2200
2400
1800
1000
1000
2000
2000
F800
ENDCHAR

STARTCHAR Tcommaaccent
ENCODING 222
SWIDTH 685 0
DWIDTH 10 0
BBX 10 15 1 -4
BITMAP
3FC0
6440
4480
8480
0800
0800
0800
1000
1000
1000
7C00
0000
3000
1000
2000
ENDCHAR

STARTCHAR germandbls
ENCODING 223
SWIDTH 556 0
DWIDTH 8 0
BBX 10 13 -1 -2
BITMAP
0380
0440
0840
0880
1300
1100
1080
2080
2080
2900
4E00
4000
C000
ENDCHAR

STARTCHAR racute
ENCODING 224
SWIDTH 444 0
DWIDTH 7 0
BBX 6 10 1 0
BITMAP
18
20
00
D8
6C
40
40
80
80
80
ENDCHAR

STARTCHAR aacute
ENCODING 225
SWIDTH 574 0
DWIDTH 9 0
BBX 8 10 1 0
BITMAP
0C
10
00
3A
46
82
84
84
8D
72
ENDCHAR

STARTCHAR acircumflex
ENCODING 226
SWIDTH 574 0
DWIDTH 9 0
BBX 8 10 1 0
BITMAP
18
24
00
3A
46
82
84
84
8D
72
ENDCHAR

STARTCHAR abreve
ENCODING 227
SWIDTH 574 0
DWIDTH 9 0
BBX 8 10 1 0
BITMAP
22
1C
00
3A
46
82
84
84
8D
72
ENDCHAR

STARTCHAR adieresis
ENCODING 228
SWIDTH 574 0
DWIDTH 9 0
BBX 8 9 1 0
BITMAP
36
00
3A
46
82
84
84
8D
72
ENDCHAR

STARTCHAR lacute
ENCODING 229
SWIDTH 333 0
DWIDTH 5 0
BBX 5 14 1 0
BITMAP
18
20
00
60
20
20
40
40
40
40
80
80
A0
40
ENDCHAR

STARTCHAR cacute
ENCODING 230
SWIDTH 444 0
DWIDTH 7 0
BBX 6 10 1 0
BITMAP
0C
10
00
38
44
84
80
80
88
70
ENDCHAR

STARTCHAR ccedilla
ENCODING 231
SWIDTH 444 0
DWIDTH 7 0
BBX 6 10 1 -3
BITMAP
38
44
84
80
80
88
70
20
10
60
ENDCHAR

STARTCHAR ccaron
ENCODING 232
SWIDTH 444 0
DWIDTH 7 0
BBX 6 10 1 0
BITMAP
24
18
00
38
44
84
80
80
88
70
ENDCHAR

STARTCHAR eacute
ENCODING 233
SWIDTH 444 0
DWIDTH 7 0
BBX 6 10 1 0
BITMAP
0C
10
00
38
44
84
F8
80
88
70
ENDCHAR

STARTCHAR eogonek
ENCODING 234
SWIDTH 444 0
DWIDTH 7 0
BBX 6 9 1 -2
BITMAP
38
44
84
F8
80
88
70
20
18
ENDCHAR

STARTCHAR edieresis
ENCODING 235
SWIDTH 444 0
DWIDTH 7 0
BBX 7 9 1 0
BITMAP
36
00
38
44
84
F8
80
88
70
ENDCHAR

STARTCHAR ecaron
ENCODING 236
SWIDTH 444 0
DWIDTH 7 0
BBX 6 10 1 0
BITMAP
24
18
00
38
44
84
F8
80
88
70
ENDCHAR

STARTCHAR iacute
ENCODING 237
SWIDTH 333 0
DWIDTH 5 0
BBX 4 10 1 0
BITMAP
30
40
00
C0
40
40
80
80
A0
40
ENDCHAR

STARTCHAR icircumflex
ENCODING 238
SWIDTH 333 0
DWIDTH 5 0
BBX 4 10 1 0
BITMAP
60
90
00
C0
40
40
80
80
A0
40
ENDCHAR

STARTCHAR dcaron
ENCODING 239
SWIDTH 655 0
DWIDTH 9 0
BBX 11 11 1 0
BITMAP
0360
0120
0120
0240
3A00
4600
8200
8400
8400
8D00
7600
ENDCHAR

STARTCHAR dcroat
ENCODING 240
SWIDTH 611 0
DWIDTH 9 0
BBX 9 11 1 0
BITMAP
0300
0100
0F80
0200
3A00
4600
8200
8400
8400
8D00
7600
ENDCHAR

STARTCHAR nacute
ENCODING 241
SWIDTH 611 0
DWIDTH 9 0
BBX 8 10 1 0
BITMAP
0C
10
00
DC
62
42
42
84
85
82
ENDCHAR

STARTCHAR ncaron
ENCODING 242
SWIDTH 611 0
DWIDTH 9 0
BBX 8 10 1 0
BITMAP
12
0C
00
DC
62
42
42
84
85
82
ENDCHAR

STARTCHAR oacute
ENCODING 243
SWIDTH 500 0
DWIDTH 8 0
BBX 6 10 1 0
BITMAP
0C
10
00
38
44
84
84
84
88
70
ENDCHAR

STARTCHAR ocircumflex
ENCODING 244
SWIDTH 500 0
DWIDTH 8 0
BBX 6 10 1 0
BITMAP
18
24
00
38
44
84
84
84
88
70
ENDCHAR

STARTCHAR ohungarumlaut
ENCODING 245
SWIDTH 500 0
DWIDTH 8 0
BBX 8 10 1 0
BITMAP
33
44
00
38
44
84
84
84
88
70
ENDCHAR

STARTCHAR odieresis
ENCODING 246
SWIDTH 500 0
DWIDTH 8 0
BBX 6 9 1 0
BITMAP
6C
00
38
44
84
84
84
88
70
ENDCHAR

STARTCHAR divide
ENCODING 247
SWIDTH 606 0
DWIDTH 9 0
BBX 7 7 2 2
BITMAP
10
00
00
FE
00
00
10
ENDCHAR

STARTCHAR rcaron
ENCODING 248
SWIDTH 444 0
DWIDTH 7 0
BBX 6 10 1 0
BITMAP
48
30
00
D8
6C
40
40
80
80
80
ENDCHAR

STARTCHAR uring
ENCODING 249
SWIDTH 611 0
DWIDTH 9 0
BBX 7 11 1 0
BITMAP
18
24
18
00
C2
42
42
84
84
8C
76
ENDCHAR

STARTCHAR uacute
ENCODING 250
SWIDTH 611 0
DWIDTH 9 0
BBX 7 10 1 0
BITMAP
0C
10
00
C2
42
42
84
84
8C
76
ENDCHAR

STARTCHAR uhungarumlaut
ENCODING 251
SWIDTH 611 0
DWIDTH 9 0
BBX 8 10 1 0
BITMAP
33
44
00
C2
42
42
84
84
8C
76
ENDCHAR

STARTCHAR udieresis
ENCODING 252
SWIDTH 611 0
DWIDTH 9 0
BBX 7 9 1 0
BITMAP
36
00
C2
42
42
84
84
8C
76
ENDCHAR

STARTCHAR yacute
ENCODING 253
SWIDTH 500 0
DWIDTH 8 0
BBX 7 13 0 -3
BITMAP
0C
10
00
44
A2
22
22
14
14
18
10
A0
C0
ENDCHAR

STARTCHAR tcommaaccent
ENCODING 254
SWIDTH 352 0
DWIDTH 5 0
BBX 5 14 1 -4
BITMAP
20
20
20
F8
40
40
80
80
90
60
00
C0
40
80
ENDCHAR

STARTCHAR dotaccent
ENCODING 255
SWIDTH 333 0
DWIDTH 5 0
BBX 2 1 2 8
BITMAP
C0
ENDCHAR
ENDFONT
